<svg width="296" height="270" viewBox="0 0 296 270" fill="none" xmlns="http://www.w3.org/2000/svg">
<path d="M281.863 85.9001L283.171 73.5491C283.346 71.8983 283.119 70.6174 282.492 69.7062C281.842 68.8129 280.831 68.2936 279.459 68.1483C278.106 68.0051 277.029 68.3033 276.227 69.043C275.402 69.8004 274.903 71.0045 274.728 72.6553L273.42 85.0063L269.244 84.5641L270.551 72.2131C270.758 70.264 271.3 68.6522 272.18 67.3777C273.037 66.1209 274.146 65.2328 275.509 64.7133C276.851 64.1917 278.338 64.0173 279.968 64.1899C282.494 64.4574 284.433 65.4268 285.785 67.0984C287.136 68.77 287.657 71.0676 287.348 73.9913L286.04 86.3423L281.863 85.9001Z" fill="black" fill-opacity="0.1"/>
<path d="M249.077 83.8064L248.406 62.6371L252.633 62.503L253.305 83.6724L249.077 83.8064Z" fill="black" fill-opacity="0.1"/>
<path d="M227.141 85.4475L224.204 73.38C223.811 71.7671 223.166 70.6377 222.267 69.9918C221.354 69.3701 220.227 69.2225 218.887 69.5489C217.565 69.8706 216.652 70.5149 216.146 71.482C215.626 72.4732 215.562 73.7752 215.955 75.3881L218.892 87.4557L214.812 88.4491L211.874 76.3816C211.41 74.4772 211.377 72.7768 211.774 71.2803C212.157 69.808 212.902 68.5975 214.009 67.6488C215.096 66.7047 216.437 66.0388 218.03 65.6508C220.498 65.05 222.65 65.3083 224.487 66.4257C226.323 67.543 227.589 69.5299 228.284 72.3865L231.222 84.4541L227.141 85.4475Z" fill="black" fill-opacity="0.1"/>
<path d="M181.218 77.5248L188.555 82.1296L189.41 73.7969L193.806 71.7963L192.23 84.4122L202.743 90.9994L198.183 93.0746L190.991 88.569L190.128 96.7403L185.732 98.7409L187.355 86.3013L176.658 79.5999L181.218 77.5248Z" fill="black" fill-opacity="0.1"/>
<path d="M143.838 113.079C142.5 111.46 141.661 109.754 141.32 107.96C140.979 106.166 141.169 104.387 141.891 102.623C142.61 100.887 143.856 99.287 145.629 97.8218L151.433 93.0249L164.926 109.351L159.122 114.148C157.349 115.613 155.542 116.535 153.702 116.914C151.859 117.322 150.089 117.189 148.391 116.516C146.706 115.859 145.189 114.713 143.838 113.079ZM148.315 100.506C146.557 101.959 145.583 103.542 145.391 105.257C145.184 106.985 145.769 108.681 147.145 110.346C148.534 112.027 150.096 112.928 151.832 113.05C153.552 113.185 155.291 112.527 157.048 111.074L159.315 109.201L150.581 98.6333L148.315 100.506Z" fill="black" fill-opacity="0.1"/>
<path d="M120.329 134.558C120.006 134.29 119.668 133.945 119.316 133.524L127.086 124.144C125.909 123.246 124.814 122.859 123.803 122.982C122.792 123.105 121.935 123.591 121.233 124.438C120.608 125.192 120.276 125.969 120.238 126.768C120.186 127.583 120.419 128.321 120.935 128.983L118.084 132.425C117.331 131.515 116.83 130.49 116.581 129.348C116.331 128.207 116.37 127.032 116.697 125.822C117.011 124.628 117.609 123.499 118.489 122.437C119.523 121.189 120.703 120.297 122.031 119.761C123.373 119.237 124.761 119.114 126.193 119.392C127.625 119.669 129.012 120.363 130.351 121.473C131.691 122.583 132.631 123.816 133.17 125.172C133.724 126.54 133.862 127.926 133.581 129.33C133.301 130.735 132.644 132.06 131.611 133.308C130.564 134.571 129.39 135.455 128.088 135.961C126.774 136.482 125.444 136.614 124.099 136.356C122.756 136.127 121.5 135.528 120.329 134.558ZM123.37 131.545C124.379 132.459 125.402 132.839 126.439 132.685C127.463 132.546 128.332 132.046 129.046 131.183C129.774 130.306 130.117 129.343 130.075 128.296C130.034 127.249 129.515 126.26 128.519 125.331L123.37 131.545Z" fill="black" fill-opacity="0.1"/>
<path d="M115.099 155.018C114.082 156.763 112.825 157.906 111.33 158.446C109.834 158.987 108.276 158.958 106.657 158.361L108.651 154.94C109.423 155.205 110.157 155.216 110.854 154.974C111.55 154.732 112.125 154.222 112.579 153.445C112.941 152.823 113.076 152.253 112.984 151.737C112.892 151.22 112.595 150.815 112.094 150.523C111.697 150.292 111.296 150.243 110.893 150.379C110.49 150.514 110.099 150.749 109.719 151.083C109.339 151.417 108.827 151.918 108.184 152.584C107.307 153.532 106.534 154.262 105.865 154.775C105.203 155.315 104.437 155.655 103.568 155.797C102.706 155.965 101.782 155.763 100.797 155.189C99.5703 154.473 98.8589 153.41 98.6627 152C98.4564 150.606 98.8267 149.097 99.7736 147.473C100.861 145.607 102.147 144.354 103.631 143.715C105.133 143.085 106.732 143.103 108.428 143.767L106.388 147.266C105.629 146.94 104.886 146.923 104.159 147.217C103.45 147.521 102.843 148.105 102.339 148.969C101.977 149.591 101.847 150.152 101.949 150.651C102.069 151.161 102.37 151.557 102.854 151.839C103.269 152.08 103.691 152.13 104.122 151.987C104.542 151.862 104.947 151.624 105.337 151.272C105.717 150.938 106.229 150.438 106.872 149.771C107.739 148.841 108.489 148.109 109.124 147.576C109.766 147.071 110.504 146.737 111.339 146.576C112.164 146.432 113.06 146.642 114.028 147.206C115.272 147.931 116.006 148.995 116.229 150.399C116.453 151.803 116.076 153.342 115.099 155.018Z" fill="black" fill-opacity="0.1"/>
<path d="M109.51 174.548C110.134 174.818 110.543 175.258 110.737 175.865C110.95 176.481 110.901 177.146 110.59 177.862C110.28 178.577 109.827 179.067 109.232 179.333C108.656 179.606 108.056 179.607 107.432 179.336C106.827 179.073 106.418 178.634 106.205 178.019C106.011 177.411 106.069 176.75 106.38 176.034C106.69 175.319 107.134 174.824 107.71 174.551C108.305 174.286 108.905 174.285 109.51 174.548ZM103.259 176.969L88.0133 170.353L89.6973 166.472L104.943 173.089L103.259 176.969Z" fill="black" fill-opacity="0.1"/>
<path d="M98.1462 189.916C97.7679 191.264 97.1259 192.331 96.2202 193.115C95.3145 193.899 94.2658 194.343 93.0739 194.444L96.3956 195.377L95.2606 199.42L79.2012 194.913C77.7185 194.497 76.4736 193.825 75.4665 192.899C74.4348 191.986 73.7468 190.848 73.4025 189.484C73.0529 188.139 73.1104 186.639 73.5752 184.983C74.2238 182.672 75.2968 180.959 76.7944 179.842C78.2919 178.725 80.0274 178.277 82.001 178.499L80.8741 182.514C80.0005 182.518 79.2504 182.785 78.6238 183.315C77.9724 183.86 77.5009 184.652 77.209 185.691C76.8739 186.885 76.9599 187.948 77.467 188.88C77.9549 189.806 78.9112 190.469 80.3362 190.869L83.7445 191.826C82.7796 191.119 82.105 190.192 81.7205 189.045C81.3553 187.904 81.3619 186.66 81.7402 185.312C82.1185 183.964 82.7864 182.843 83.7437 181.948C84.7011 181.053 85.8824 180.471 87.2878 180.201C88.7069 179.955 90.2542 180.067 91.9294 180.538C93.6047 181.008 94.9747 181.714 96.0396 182.657C97.1182 183.625 97.8336 184.739 98.1856 186.001C98.5377 187.264 98.5245 188.569 98.1462 189.916ZM94.2368 190.19C94.5935 188.919 94.4659 187.783 93.8541 186.78C93.2423 185.777 92.2143 185.073 90.7701 184.668C89.3259 184.263 88.0817 184.329 87.0375 184.867C86.0126 185.41 85.3218 186.317 84.9651 187.588C84.6192 188.82 84.7494 189.947 85.3559 190.969C85.9761 192.016 86.9891 192.736 88.3948 193.131C89.8197 193.531 91.0597 193.443 92.1147 192.866C93.1835 192.315 93.8909 191.423 94.2368 190.19Z" fill="black" fill-opacity="0.1"/>
<path d="M90.6854 223.309C90.5191 225.221 89.759 226.691 88.405 227.718C87.051 228.744 85.2383 229.159 82.9669 228.961L73.3431 228.125L73.7069 223.941L82.8524 224.736C84.1674 224.85 85.213 224.6 85.9892 223.984C86.7853 223.371 87.2345 222.477 87.3366 221.301C87.4406 220.106 87.1352 219.115 86.4204 218.331C85.7057 217.546 84.6211 217.09 83.1666 216.964L74.3797 216.2L74.746 211.986L91.3036 213.425L90.9373 217.639L87.6198 217.351C88.6975 217.886 89.5019 218.679 90.0329 219.729C90.5822 220.8 90.7997 221.994 90.6854 223.309Z" fill="black" fill-opacity="0.1"/>
<path d="M82.53 260.284C82.1118 260.323 81.6293 260.318 81.0823 260.269L79.9452 248.143C78.4772 248.34 77.4293 248.84 76.8015 249.643C76.1736 250.445 75.911 251.393 76.0137 252.489C76.1052 253.464 76.4198 254.248 76.9575 254.841C77.497 255.453 78.1834 255.81 79.0166 255.913L79.4339 260.364C78.2584 260.253 77.1791 259.882 76.1959 259.251C75.2127 258.62 74.409 257.761 73.7848 256.675C73.1626 255.608 72.787 254.388 72.6581 253.014C72.5069 251.401 72.711 249.936 73.2704 248.618C73.8497 247.298 74.7439 246.23 75.9529 245.413C77.162 244.597 78.6327 244.107 80.3651 243.945C82.0975 243.783 83.6336 243.99 84.9733 244.567C86.333 245.143 87.4102 246.026 88.2049 247.217C88.9995 248.408 89.4725 249.81 89.6237 251.423C89.7768 253.056 89.5718 254.512 89.0087 255.79C88.4474 257.088 87.6002 258.121 86.4671 258.891C85.3557 259.678 84.0434 260.142 82.53 260.284ZM82.5505 256.004C83.9101 255.936 84.902 255.482 85.5261 254.64C86.1521 253.818 86.4128 252.849 86.3083 251.734C86.2018 250.599 85.7637 249.676 84.994 248.965C84.2242 248.253 83.1586 247.922 81.797 247.969L82.5505 256.004Z" fill="black" fill-opacity="0.1"/>
</svg>
