<svg width="1602" height="72" viewBox="0 0 1602 72" fill="none" xmlns="http://www.w3.org/2000/svg">
<path d="M20.256 53L12.912 40.184H11.04V53H2.832V19.064H16.848C19.536 19.064 21.808 19.528 23.664 20.456C25.52 21.384 26.912 22.664 27.84 24.296C28.768 25.896 29.232 27.736 29.232 29.816C29.232 32.28 28.544 34.376 27.168 36.104C25.824 37.832 23.856 39.016 21.264 39.656L29.328 53H20.256ZM11.04 34.568H16.128C17.76 34.568 18.96 34.216 19.728 33.512C20.496 32.776 20.88 31.704 20.88 30.296C20.88 28.952 20.48 27.896 19.68 27.128C18.912 26.36 17.728 25.976 16.128 25.976H11.04V34.568ZM58.7876 38.888C58.7876 39.56 58.7076 40.296 58.5476 41.096H39.9716C40.0676 43.112 40.5796 44.568 41.5076 45.464C42.4356 46.328 43.6196 46.76 45.0596 46.76C46.2756 46.76 47.2836 46.456 48.0836 45.848C48.8836 45.24 49.4116 44.456 49.6676 43.496H58.3556C58.0036 45.384 57.2356 47.08 56.0516 48.584C54.8676 50.056 53.3636 51.224 51.5396 52.088C49.7156 52.92 47.6836 53.336 45.4436 53.336C42.8196 53.336 40.4836 52.792 38.4356 51.704C36.4196 50.584 34.8356 48.984 33.6836 46.904C32.5316 44.824 31.9556 42.392 31.9556 39.608C31.9556 36.792 32.5156 34.36 33.6356 32.312C34.7876 30.232 36.3876 28.648 38.4356 27.56C40.4836 26.44 42.8196 25.88 45.4436 25.88C48.0996 25.88 50.4356 26.424 52.4516 27.512C54.4676 28.6 56.0196 30.136 57.1076 32.12C58.2276 34.072 58.7876 36.328 58.7876 38.888ZM50.4836 37.64C50.5156 35.88 50.0356 34.568 49.0436 33.704C48.0836 32.808 46.8836 32.36 45.4436 32.36C43.9396 32.36 42.6916 32.808 41.6996 33.704C40.7076 34.6 40.1476 35.912 40.0196 37.64H50.4836ZM75.4504 44.984L81.2584 26.216H89.9944L80.4904 53H70.3144L60.8104 26.216H69.5464L75.4504 44.984Z" fill="white"/>
<path d="M100.451 44.792V53H91.9545V44.792H100.451Z" fill="#F1875E"/>
</svg>
